<svg id="AppStore" xmlns="http://www.w3.org/2000/svg" width="508" height="160" viewBox="0 0 508 160">
  <defs>
    <style>
      .cls-1 {
        fill: #a6a6a6;
      }

      .cls-2 {
        fill: #060004;
      }

      .cls-3 {
        fill: #fff;
        fill-rule: evenodd;
      }
    </style>
  </defs>
  <g id="основа">
    <rect id="контур" class="cls-1" width="508" height="160" rx="26" ry="26"/>
    <rect id="заливка" class="cls-2" x="3" y="3" width="502" height="154" rx="24" ry="24"/>
  </g>
  <path id="ru" class="cls-3" d="M113.352,81.2A19.785,19.785,0,0,1,122.8,64.595,20.332,20.332,0,0,0,106.8,55.964c-6.736-.7-13.265,4.02-16.7,4.02-3.5,0-8.783-3.95-14.474-3.833A21.326,21.326,0,0,0,57.684,67.062c-7.758,13.394-1.971,33.078,5.46,43.9,3.718,5.3,8.063,11.223,13.748,11.013,5.564-.231,7.641-3.538,14.357-3.538,6.653,0,8.6,3.538,14.4,3.4,5.97-.1,9.732-5.325,13.319-10.676a43.8,43.8,0,0,0,6.09-12.37A19.128,19.128,0,0,1,113.352,81.2ZM102.4,48.844a19.456,19.456,0,0,0,4.47-13.962A19.9,19.9,0,0,0,94,41.52a18.513,18.513,0,0,0-4.587,13.446A16.461,16.461,0,0,0,102.4,48.844Zm81.284,59.715H164.694l-4.56,13.426h-8.041l17.983-49.672h8.355l17.983,49.672h-8.179Zm-17.02-6.2h15.049l-7.418-21.788h-0.208Zm68.591,1.516c0,11.254-6.04,18.484-15.155,18.484a12.318,12.318,0,0,1-11.426-6.336H208.5v17.938h-7.455V85.77h7.216v6.023H208.4a12.889,12.889,0,0,1,11.563-6.4C229.176,85.391,235.251,92.657,235.251,103.879Zm-7.662,0c0-7.332-3.8-12.152-9.6-12.152-5.7,0-9.527,4.922-9.527,12.152,0,7.3,3.831,12.184,9.527,12.184C223.79,116.063,227.589,111.277,227.589,103.879Zm47.632,0c0,11.254-6.04,18.484-15.155,18.484a12.316,12.316,0,0,1-11.426-6.336h-0.173v17.938h-7.454V85.77h7.215v6.023h0.137a12.89,12.89,0,0,1,11.563-6.4C269.145,85.391,275.221,92.657,275.221,103.879Zm-7.662,0c0-7.332-3.8-12.152-9.6-12.152-5.695,0-9.526,4.922-9.526,12.152,0,7.3,3.831,12.184,9.526,12.184,5.8,0,9.6-4.786,9.6-12.184h0Zm34.078,4.266c0.553,4.926,5.351,8.16,11.908,8.16,6.283,0,10.8-3.235,10.8-7.676,0-3.856-2.726-6.164-9.182-7.746l-6.454-1.551c-9.147-2.2-13.393-6.469-13.393-13.391,0-8.57,7.489-14.457,18.124-14.457,10.525,0,17.74,5.887,17.983,14.457H323.9c-0.45-4.957-4.559-7.949-10.564-7.949s-10.113,3.027-10.113,7.434c0,3.512,2.624,5.578,9.044,7.16l5.488,1.344c10.219,2.41,14.465,6.5,14.465,13.77,0,9.293-7.422,15.113-19.229,15.113-11.046,0-18.5-5.683-18.985-14.668h7.63ZM348.309,77.2v8.57h6.9v5.887h-6.9v19.964c0,3.1,1.382,4.547,4.418,4.547a23.111,23.111,0,0,0,2.452-.172v5.852a20.528,20.528,0,0,1-4.14.343c-7.352,0-10.22-2.754-10.22-9.777V91.657h-5.28V85.77h5.28V77.2h7.49Zm10.9,26.68c0-11.394,6.729-18.554,17.223-18.554,10.529,0,17.227,7.16,17.227,18.554,0,11.426-6.663,18.555-17.227,18.555S359.214,115.305,359.214,103.879Zm26.855,0c0-7.816-3.592-12.43-9.632-12.43s-9.628,4.648-9.628,12.43c0,7.848,3.588,12.426,9.628,12.426s9.632-4.578,9.632-12.426h0ZM399.81,85.77h7.109v6.164h0.173a8.657,8.657,0,0,1,8.734-6.543,11.554,11.554,0,0,1,2.555.278v6.953a10.437,10.437,0,0,0-3.35-.449,7.5,7.5,0,0,0-7.809,7.181,7.377,7.377,0,0,0,.042,1.151v21.48H399.81V85.77Zm52.938,25.578c-1,6.574-7.422,11.086-15.636,11.086-10.564,0-17.122-7.059-17.122-18.383,0-11.359,6.593-18.726,16.808-18.726,10.047,0,16.366,6.883,16.366,17.863v2.547H427.515v0.449a9.439,9.439,0,0,0,8.587,10.227,9.328,9.328,0,0,0,1.182.03,8.219,8.219,0,0,0,8.387-5.093h7.077Zm-25.2-10.809h18.156a8.718,8.718,0,0,0-8.234-9.18c-0.225-.012-0.449-0.016-0.674-0.012a9.182,9.182,0,0,0-9.248,9.113v0.078ZM161.362,45.014h3.2a4.018,4.018,0,0,0,4.485-3.482q0.019-.16.027-0.322c0-2.2-1.661-3.623-4.477-3.623a4.264,4.264,0,0,0-4.816,3.624c-0.005.038-.01,0.076-0.014,0.114h-3.514a7.5,7.5,0,0,1,7.931-7.03c0.176,0.01.352,0.027,0.526,0.049,4.712,0,8.03,2.631,8.03,6.418a5.547,5.547,0,0,1-4.348,5.459V46.5a5.566,5.566,0,0,1,5.324,5.772,7.99,7.99,0,0,1-8.772,7.114l-0.167-.019a7.951,7.951,0,0,1-8.957-6.789q-0.018-.136-0.033-0.273h3.569c0.215,2.283,2.318,3.756,5.421,3.756s5.127-1.654,5.127-3.986c0-2.365-1.907-3.822-5.241-3.822h-3.3v-3.24ZM177.771,53.7c0-3.242,2.424-5.111,6.717-5.377l4.893-.281V46.485c0-1.9-1.257-2.976-3.7-2.976-1.99,0-3.365.728-3.764,2h-3.451c0.364-3.094,3.286-5.078,7.384-5.078,4.528,0,7.082,2.248,7.082,6.053V58.791H189.5V56.26h-0.282a6.081,6.081,0,0,1-5.425,2.828,5.453,5.453,0,0,1-5.991-4.849A5.16,5.16,0,0,1,177.771,53.7Zm11.61-1.539V50.653l-4.411.281c-2.487.166-3.616,1.01-3.616,2.6,0,1.621,1.411,2.564,3.35,2.564a4.255,4.255,0,0,0,4.665-3.8C189.374,52.252,189.378,52.206,189.381,52.158Zm13.012-8.386v15.02h-3.564V40.78h11.892v2.992h-8.328Zm29.93,6.006c0,5.723-2.9,9.311-7.462,9.311a5.891,5.891,0,0,1-5.558-3.026h-0.282v8.717h-3.565v-24h3.432v2.977h0.266a6.277,6.277,0,0,1,5.672-3.275C229.421,40.481,232.323,44.053,232.323,49.778Zm-3.666,0c0-3.8-1.806-6.1-4.826-6.1-3,0-4.877,2.348-4.877,6.119,0,3.754,1.877,6.1,4.861,6.1C226.851,55.9,228.657,53.6,228.657,49.778Zm8.414,15.465V62.182a8.436,8.436,0,0,0,1.163.066,3.089,3.089,0,0,0,3.267-2.514l0.266-.877L235.23,40.78h3.881l4.529,14.307h0.282l4.512-14.307h3.78l-6.733,18.756c-1.544,4.383-3.252,5.789-6.933,5.789C238.25,65.325,237.4,65.291,237.071,65.243Zm17.92-11.563h3.549c0.348,1.588,1.841,2.416,3.929,2.416,2.373,0,3.831-1.043,3.831-2.664,0-1.736-1.309-2.564-3.831-2.564h-2.7V48.106h2.656c2.154,0,3.251-.826,3.251-2.332,0-1.322-1.062-2.332-3.251-2.332-1.994,0-3.451.844-3.682,2.266H255.3a6.328,6.328,0,0,1,7.118-5.276c4.293,0,6.749,1.936,6.749,4.979a3.7,3.7,0,0,1-2.852,3.687V49.38a4.044,4.044,0,0,1,3.533,4.052c0,3.424-2.922,5.69-7.383,5.69C258.524,59.121,255.32,57.319,254.991,53.68Zm19.994,5.111V40.78h3.534V53.168H278.8l8.323-12.389h3.534V58.791h-3.534V46.336h-0.266l-8.339,12.455h-3.534Zm35.136-15.019h-5.687v15.02h-3.568V43.772h-5.688V40.78h14.943v2.992Zm19.2,10.156a7.34,7.34,0,0,1-7.83,5.211,8.182,8.182,0,0,1-8.344-9.3,8.326,8.326,0,0,1,8.328-9.41c5.026,0,8.061,3.424,8.061,9.08v1.24H316.784v0.2a4.761,4.761,0,0,0,4.348,5.143c0.154,0.013.308,0.019,0.463,0.017a4.331,4.331,0,0,0,4.293-2.184h3.435Zm-12.539-5.8H325.9a4.349,4.349,0,0,0-4.022-4.655q-0.21-.016-0.42-0.011A4.609,4.609,0,0,0,316.784,48v0.127h0Zm27.651-7.344h8.143c3.533,0,5.605,1.785,5.605,4.58a3.872,3.872,0,0,1-3.051,3.8v0.281a4.115,4.115,0,0,1,3.862,4.152c0,3.142-2.37,5.193-6.333,5.193h-8.226V40.78Zm3.533,2.729v4.664H351.5c2.154,0,3.185-.826,3.185-2.35,0-1.4-.9-2.315-2.79-2.315h-3.928Zm0,7.277v5.277h4.226c2.108,0,3.236-.928,3.236-2.631,0-1.8-1.277-2.646-3.682-2.646h-3.78Z"/>
</svg>
