<svg id="GooglePlay" xmlns="http://www.w3.org/2000/svg" width="508" height="160" viewBox="0 0 508 160">
  <defs>
    <style>
      .cls-1 {
        fill: #a6a6a6;
      }

      .cls-2 {
        fill: #060004;
      }

      .cls-3 {
        fill: #ffd800;
      }

      .cls-3, .cls-4, .cls-5, .cls-6, .cls-7 {
        fill-rule: evenodd;
      }

      .cls-4 {
        fill: #f3314a;
      }

      .cls-5 {
        fill: #00f076;
      }

      .cls-6 {
        fill: #00daff;
      }

      .cls-7 {
        fill: #fff;
      }
    </style>
  </defs>
  <g id="основа">
    <rect id="контур" class="cls-1" width="508" height="160" rx="26" ry="26"/>
    <rect id="заливка" class="cls-2" x="3" y="3" width="502" height="154" rx="24" ry="24"/>
  </g>
  <g id="знак">
    <path id="жел" class="cls-3" d="M102.553,97.1l-16.5-16.512V79.416l16.507-16.51,0.374,0.213L122.486,74.23c5.586,3.172,5.586,8.365,0,11.539L102.932,96.881Z"/>
    <path id="крас" class="cls-4" d="M102.932,96.881L86.051,80,36.24,129.81c1.842,1.95,4.881,2.19,8.306.245l58.385-33.174"/>
    <path id="зел" class="cls-5" d="M102.932,63.119L44.547,29.945c-3.426-1.947-6.465-1.7-8.306.244L86.051,80Z"/>
    <path id="гол" class="cls-6" d="M36.24,30.19a8,8,0,0,0-1.85,5.615V124.2a8,8,0,0,0,1.85,5.615l0.295,0.29L86.051,80.584V79.416L36.535,29.9Z"/>
  </g>
  <path id="ru" class="cls-7" d="M251.043,87.006a17.013,17.013,0,1,0,17.078,17.014A16.769,16.769,0,0,0,251.043,87.006Zm0,27.324c-5.154,0-9.6-4.254-9.6-10.31,0-6.124,4.447-10.311,9.6-10.311s9.6,4.188,9.6,10.311C260.644,110.076,256.2,114.33,251.043,114.33ZM213.789,87.006a17.013,17.013,0,1,0,17.078,17.014A16.769,16.769,0,0,0,213.789,87.006Zm0,27.324c-5.154,0-9.6-4.254-9.6-10.31,0-6.124,4.447-10.311,9.6-10.311s9.6,4.188,9.6,10.311C223.391,110.076,218.945,114.33,213.789,114.33Zm-44.314-22.1v7.217h17.271c-0.516,4.061-1.869,7.024-3.932,9.086-2.513,2.514-6.445,5.285-13.339,5.285a19.206,19.206,0,0,1,0-38.408,18.4,18.4,0,0,1,13.017,5.156l5.092-5.092a25.182,25.182,0,0,0-18.109-7.281c-14.565,0-26.809,11.857-26.809,26.422s12.244,26.42,26.809,26.42c7.861,0,13.791-2.578,18.429-7.41,4.77-4.769,6.252-11.471,6.252-16.885a23.612,23.612,0,0,0-.386-4.51h-24.3Zm181.232,5.606c-1.418-3.8-5.734-10.826-14.563-10.826-8.765,0-16.046,6.9-16.046,17.014a16.647,16.647,0,0,0,16.882,17.011,16.93,16.93,0,0,0,14.18-7.539l-5.8-3.867a9.714,9.714,0,0,1-8.379,4.7,8.651,8.651,0,0,1-8.246-5.156l22.746-9.408Zm-23.2,5.672A9.333,9.333,0,0,1,336.4,93.58c2.965,0,5.477,1.482,6.317,3.608ZM309.016,120h7.472V69.994h-7.472V120ZM296.77,90.808h-0.258a11.791,11.791,0,0,0-8.957-3.8c-8.508,0-16.305,7.476-16.305,17.078,0,9.537,7.8,16.947,16.305,16.947a11.607,11.607,0,0,0,8.957-3.865h0.258v2.447c0,6.51-3.481,9.989-9.086,9.989a9.415,9.415,0,0,1-8.571-6.057l-6.507,2.707a16.208,16.208,0,0,0,15.078,10.053c8.765,0,16.175-5.157,16.175-17.723V88.037H296.77v2.771ZM288.2,114.33c-5.156,0-9.473-4.318-9.473-10.246,0-5.994,4.317-10.375,9.473-10.375,5.09,0,9.086,4.381,9.086,10.375C297.285,110.012,293.289,114.33,288.2,114.33Zm97.524-44.336H367.84V120H375.3V101.055h10.422c8.273,0,16.406-5.989,16.406-15.53S394,69.994,385.723,69.994Zm0.195,24.1H375.3V76.955h10.617A8.572,8.572,0,1,1,385.918,94.1Zm46.125-7.182c-5.4,0-11,2.381-13.317,7.656l6.626,2.766c1.418-2.766,4.054-3.666,6.82-3.666,3.859,0,7.785,2.314,7.848,6.432v0.515a16.524,16.524,0,0,0-7.786-1.929c-7.14,0-14.41,3.923-14.41,11.257,0,6.692,5.856,11,12.418,11,5.016,0,7.785-2.252,9.52-4.89h0.258v3.861h7.206V100.746C447.226,91.867,440.6,86.914,432.043,86.914Zm-0.9,27.406c-2.442,0-5.852-1.222-5.852-4.246,0-3.859,4.246-5.34,7.914-5.34a13.313,13.313,0,0,1,6.817,1.672A9.047,9.047,0,0,1,431.141,114.32Zm42.332-26.312-8.555,21.68H464.66l-8.879-21.68h-8.039l13.316,30.3-7.593,16.856h7.785l20.524-47.156h-8.3ZM406.246,120h7.461V69.994h-7.461V120Zm-44.31-82.222h0Zm-1.89,1.781a6.475,6.475,0,0,1,2.43,1.938l0,0,0,0a5.858,5.858,0,0,1,1.224,3.664,6.7,6.7,0,0,1-2.3,5.19,7.793,7.793,0,0,1-5.38,2.048h-9.549V27.6h9.08a7.454,7.454,0,0,1,5.147,1.962,6.443,6.443,0,0,1,2.194,4.973,5.633,5.633,0,0,1-.96,3.242A5.894,5.894,0,0,1,360.046,39.559Zm-1.956-7.2,0,0a3.036,3.036,0,0,0-2.4-1.007h-5.335v6.54h5.2a3.2,3.2,0,0,0,2.5-1.026A3.18,3.18,0,0,0,358.09,32.359Zm-7.733,16.292h5.8a3.276,3.276,0,0,0,2.585-1.109,3.578,3.578,0,0,0,1-2.448,3.64,3.64,0,0,0-3.724-3.522h-5.667v7.079ZM321.93,52.935a12.168,12.168,0,0,1-9.084-3.758A12.676,12.676,0,0,1,309.2,40a12.674,12.674,0,0,1,3.648-9.177A12.82,12.82,0,0,1,331,30.838,12.682,12.682,0,0,1,334.666,40a12.7,12.7,0,0,1-3.649,9.177A12.181,12.181,0,0,1,321.93,52.935Zm6.234-19.543a8.828,8.828,0,0,0-12.469,0A9,9,0,0,0,313.146,40a9,9,0,0,0,2.549,6.608h0a8.828,8.828,0,0,0,12.47,0A8.987,8.987,0,0,0,330.717,40,8.986,8.986,0,0,0,328.164,33.392ZM302.12,52.4V41.572h-11.2V52.4h-3.882V27.6h3.882V37.889h11.2V27.6h3.886V52.4H302.12Zm-23.664,0V31.349h-10.4V52.4h-3.882V27.6h18.164V52.4h-3.886ZM252.37,48.407c-1.272,2.944-3.31,4.541-5.962,4.528a6.578,6.578,0,0,1-2.538-.566l-0.326-.137,0.1-.341,0.944-3.339,0.443,0.25a2.823,2.823,0,0,0,1.413.384,2.443,2.443,0,0,0,1.427-.344,3.41,3.41,0,0,0,.959-1.366l0.8-1.746-8.26-18.13h4.506L251.6,40.912,257.2,27.6h4.5l-9.335,20.81v0ZM233.609,52v0.4h-3.886V31.349h-6.7V27.6h17.292v3.749h-6.7V52Zm-22.392-2.814a9.056,9.056,0,0,0,7.074-3.348l0.281-.322,0.3,0.3,2.4,2.4-0.233.28a12.081,12.081,0,0,1-4.264,3.239,12.994,12.994,0,0,1-5.563,1.194A12.651,12.651,0,0,1,198.348,40a12.655,12.655,0,0,1,12.869-12.937,11.506,11.506,0,0,1,9.119,4.06l0.247,0.286-0.271.263-2.465,2.386-0.275-.343a7.678,7.678,0,0,0-6.355-2.9,8.679,8.679,0,0,0-6.341,2.534A8.878,8.878,0,0,0,202.3,40a8.874,8.874,0,0,0,2.58,6.652A8.679,8.679,0,0,0,211.217,49.186ZM192.158,48.9l0.287,0.279a12.862,12.862,0,0,1-18.171,0A12.681,12.681,0,0,1,170.625,40a12.679,12.679,0,0,1,3.649-9.177,12.82,12.82,0,0,1,18.156.016A12.677,12.677,0,0,1,196.093,40a12.69,12.69,0,0,1-3.648,9.177Zm-2.566-15.506a8.828,8.828,0,0,0-12.469,0A9,9,0,0,0,174.574,40a9,9,0,0,0,2.549,6.608,8.827,8.827,0,0,0,12.469,0A8.988,8.988,0,0,0,192.145,40,8.99,8.99,0,0,0,189.592,33.392Zm-24.834,24.1V52.4h-17.4v5.094h-3.749V48.651H146.2c1.84-1.654,2.808-4.46,2.809-8.522l0-.258V27.6h16.824V48.651h2.68v8.843h-3.75Zm-2.816-26.144h-9.056v8.513l0,0.333a16.56,16.56,0,0,1-1.969,8.455h11.023v-17.3Z"/>
</svg>
